<svg width="79" height="49" viewBox="0 0 79 49" fill="none" xmlns="http://www.w3.org/2000/svg">
<path d="M29.6159 36.9635L25.2035 30.8094C24.8693 30.3433 24.1537 30.4232 23.9305 30.9514L20.3613 39.3986C20.2464 39.6704 19.98 39.8471 19.685 39.8471H13.1397C12.622 39.8471 12.2669 39.3256 12.4566 38.8439L20.523 18.3577C20.7378 17.8122 21.4739 17.7261 21.8088 18.2074L41.7225 46.825C42.0583 47.3076 42.7968 47.2195 43.0096 46.6714L51.7192 24.2375C51.8288 23.9551 52.1007 23.769 52.4036 23.769H59.5151C59.7387 23.769 59.9501 23.6671 60.0894 23.4922L65.0384 17.2772C65.4214 16.7962 65.0789 16.0857 64.464 16.0857H46.9905C46.6907 16.0857 46.4211 16.2679 46.3093 16.5461L40.8864 30.0402C40.668 30.5837 39.9323 30.6651 39.6003 30.1826L19.8181 1.43239C19.4843 0.947283 18.7439 1.03277 18.5294 1.58118L0.785987 46.9557C0.597704 47.4372 0.95277 47.9573 1.46976 47.9573H25.2176C25.5209 47.9573 25.793 47.7708 25.9024 47.4879L29.704 37.6561C29.7933 37.4251 29.7601 37.1647 29.6159 36.9635Z" fill="url(#paint0_linear_34_1061)"/>
<path d="M17.8666 1.26309C18.3207 0.21198 19.7657 0.0612257 20.4229 1.01623L40.2052 29.7665L45.628 16.2724C45.8516 15.7161 46.391 15.3516 46.9905 15.3516H64.464C65.6937 15.3516 66.3787 16.7726 65.6127 17.7346L60.6638 23.9496C60.3852 24.2994 59.9623 24.5033 59.5151 24.5033H52.4037L43.694 46.9372C43.2685 48.0333 41.7914 48.2096 41.1198 47.2445L21.2062 18.6268L13.1397 39.113H19.685L23.2542 30.6657C23.7007 29.6092 25.1318 29.4495 25.8002 30.3816L30.2126 36.5358C30.5011 36.9382 30.5674 37.459 30.3888 37.9209L26.5871 47.7527C26.3684 48.3185 25.8242 48.6915 25.2176 48.6915H1.46975C0.43579 48.6915 -0.274305 47.6513 0.102243 46.6884L17.8457 1.31386L17.8666 1.26309ZM1.46975 47.2231H25.2176L29.0192 37.3913L24.6068 31.2372L21.0376 39.6845C20.8079 40.2281 20.2751 40.5814 19.685 40.5814H13.1397C12.1043 40.5813 11.3941 39.5384 11.7734 38.5749L19.8399 18.0888L19.8608 18.0383C20.3153 16.9926 21.7522 16.8406 22.4115 17.7881L42.3252 46.4057L51.0348 23.9718L51.0563 23.9194C51.2881 23.3841 51.8167 23.0349 52.4037 23.0349H59.5151L64.464 16.8199H46.9905L41.5677 30.314C41.1308 31.401 39.6595 31.5639 38.9955 30.5988L19.2133 1.84866L1.46975 47.2231Z" fill="url(#paint1_linear_34_1061)"/>
<path d="M42.3011 11.535L38.9759 20.5606C38.7717 21.1149 38.0298 21.2133 37.6881 20.7314L33.1751 14.367C33.0316 14.1646 33 13.9035 33.0911 13.6727L37.0302 3.69363C37.1409 3.41325 37.4117 3.229 37.7131 3.229H78.0866C78.7022 3.229 79.0445 3.94112 78.6599 4.42185L73.5741 10.7791C73.4348 10.9532 73.2239 11.0546 73.0008 11.0546H42.99C42.6824 11.0546 42.4075 11.2464 42.3011 11.535Z" fill="#1A212F"/>
<defs>
<linearGradient id="paint0_linear_34_1061" x1="33.1908" y1="0.292164" x2="33.1908" y2="47.9573" gradientUnits="userSpaceOnUse">
<stop stop-color="#22B07D"/>
<stop offset="1" stop-color="#109565"/>
</linearGradient>
<linearGradient id="paint1_linear_34_1061" x1="33.1908" y1="0.29222" x2="33.1908" y2="47.9573" gradientUnits="userSpaceOnUse">
<stop stop-color="#22B07D"/>
<stop offset="1" stop-color="#109565"/>
</linearGradient>
</defs>
</svg>
